# xmcd
#
# Track frame offsets: 
#        150
#        12207
#        20523
#        34155
#        47018
#        58025
#        68769
#        80929
#        91373
#        103524
#        117362
#        132413
#        148895
#        158571
#
# Disc length: 2302 seconds
#
# Revision: 0
# Processed by: cddbd v1.5.2PL0 Copyright (c) Steve Scherf et al.
# Submitted via: ExactAudioCopyFreeDBPlugin 1.0
#
DISCID=bf08fc0e
DTITLE=Various Artist - The Many Faces of the Rolling Stones [CD3]
DYEAR=2015
DGENRE=Blues
TTITLE0=Chuck Berry - Around and Around
TTITLE1=Larry Williams - She Said Yeah
TTITLE2=Nat King Cole Trio - Route 66
TTITLE3=Muddy Waters - I Just Want to Make Love to You
TTITLE4=Howlin' Wolf - Little Red Rooster
TTITLE5=Buddy Holly - Not Fade Away
TTITLE6=Jimmy Reed - Honest I Do
TTITLE7=Dale Hawkins - Suzie Q
TTITLE8=The Coasters - Poison Ivy
TTITLE9=Slim Harpo - I'm a King Bee
TTITLE10=Robert Johnson - Love in Vain
TTITLE11=Bo Diddley - Mona
TTITLE12=Gene Allison - You Can Make It If You Try
TTITLE13=Eric Donaldson - Cherry Oh, Baby
EXTD=
EXTT0=
EXTT1=
EXTT2=
EXTT3=
EXTT4=
EXTT5=
EXTT6=
EXTT7=
EXTT8=
EXTT9=
EXTT10=
EXTT11=
EXTT12=
EXTT13=
PLAYORDER=
